Coordinates
version=1
nRows=11
nColumns=40
inDegrees=yes

Units are S.I. units (second, meters, Newtons, ...)
Angles are in degrees.

endheader
time	pelvis_tilt	pelvis_list	pelvis_rotation	pelvis_tx	pelvis_ty	pelvis_tz	hip_flexion_r	hip_adduction_r	hip_rotation_r	knee_angle_r	knee_angle_r_beta	ankle_angle_r	subtalar_angle_r	mtp_angle_r	hip_flexion_l	hip_adduction_l	hip_rotation_l	knee_angle_l	knee_angle_l_beta	ankle_angle_l	subtalar_angle_l	mtp_angle_l	lumbar_extension	lumbar_bending	lumbar_rotation	arm_flex_r	arm_add_r	arm_rot_r	elbow_flex_r	pro_sup_r	wrist_flex_r	wrist_dev_r	arm_flex_l	arm_add_l	arm_rot_l	elbow_flex_l	pro_sup_l	wrist_flex_l	wrist_dev_l
     40.85000000	     -2.31076551	     -3.98325250	      1.25792252	      0.98539155	      0.91112033	      0.39072573	     20.86992673	     -9.33866908	     -1.90150913	     61.05175069	     61.05175069	     -0.97132033	    -17.76246561	     -8.30631215	     21.10792021	     -1.55848195	     -0.32161077	     35.65890720	     35.65890720	     19.38448415	    -17.66383173	      7.22924662	    -11.38473448	      6.32802663	      3.89542346	     17.25095609	    -12.64621775	    -10.15544641	     24.90985811	     46.38324961	      0.00000000	      0.00000000	     19.26805410	    -13.67702822	     17.06417700	     33.39434462	     45.29360106	      0.00000000	      0.00000000
     40.87092857	     -2.23267099	     -4.00345941	      0.67798911	      0.98484069	      0.91214778	      0.38926991	     22.55077413	     -9.16373814	     -1.78233714	     63.10527685	     63.10527685	     -0.59466520	    -18.40166834	     -3.11199257	     20.44994908	     -1.60644438	     -0.82010432	     35.24028333	     35.24028333	     19.64957705	    -17.63366595	      7.59351961	    -11.43168727	      6.50207279	      3.46997555	     13.48544095	    -12.35980560	     -9.90665018	     24.43727955	     46.36850151	      0.00000000	      0.00000000	     21.00136152	    -14.86747674	     16.42075058	     36.32564584	     45.41359426	      0.00000000	      0.00000000
     40.89185714	     -2.18384307	     -4.00803321	      0.04225334	      0.98425018	      0.91332802	      0.38790352	     24.23256806	     -8.98736006	     -1.68958437	     64.88471561	     64.88471561	      0.26587665	    -18.71923589	      2.76764858	     19.73278328	     -1.64050854	     -1.36912307	     34.66679544	     34.66679544	     19.76038700	    -17.63095462	      7.64676033	    -11.46135793	      6.64776039	      3.12018219	      9.57834457	    -12.18785373	     -9.36895083	     23.93568768	     46.32988437	      0.00000000	      0.00000000	     22.97931450	    -16.02742766	     15.62615857	     38.93432375	     45.56710441	      0.00000000	      0.00000000
     40.91278571	     -2.13799314	     -4.01736187	     -0.63094930	      0.98362273	      0.91479971	      0.38672373	     25.74046627	     -8.82032612	     -1.70219705	     66.09360631	     66.09360631	      1.19812086	    -18.94397178	      7.62269537	     18.92389104	     -1.69861165	     -1.99681513	     33.92578769	     33.92578769	     19.77706022	    -17.57643061	      7.57688265	    -11.54096600	      6.79720613	      2.86267421	      5.65684741	    -12.11406897	     -8.80713769	     23.54360902	     46.28555299	      0.00000000	      0.00000000	     25.05956481	    -17.15040880	     14.64151468	     41.46783566	     45.74584856	      0.00000000	      0.00000000
     40.93371429	     -2.12909322	     -4.02723183	     -1.37404169	      0.98291541	      0.91656268	      0.38584772	     27.07435629	     -8.61991857	     -1.74608000	     66.61060641	     66.61060641	      2.03488160	    -19.11031015	     10.95485978	     18.04207489	     -1.76378459	     -2.67191699	     32.96413753	     32.96413753	     19.66688703	    -17.53733451	      7.44127756	    -11.62308958	      6.93447092	      2.63302661	      1.87337375	    -12.12212148	     -8.31361202	     23.34526008	     46.24295054	      0.00000000	      0.00000000	     27.10269601	    -18.28771892	     13.46738839	     43.95770362	     45.93899223	      0.00000000	      0.00000000
     40.95464286	     -2.14891299	     -3.97833840	     -2.19270061	      0.98213010	      0.91870525	      0.38537036	     28.14341858	     -8.45616953	     -1.80515542	     66.27048064	     66.27048064	      2.41374687	    -19.20800245	     11.46201230	     17.06308542	     -1.78391110	     -3.46097169	     31.76279443	     31.76279443	     19.56209198	    -17.40342299	      7.64790125	    -11.65003174	      6.96077834	      2.44105261	     -1.36505548	    -12.04119539	     -8.23692812	     22.32739367	     46.25537783	      0.00000000	      0.00000000	     29.41241356	    -19.37382197	     12.69670042	     45.52979540	     46.05719995	      0.00000000	      0.00000000
     40.97557143	     -2.28175203	     -4.12430755	     -3.03989480	      0.98118915	      0.92086687	      0.38546209	     29.13939860	     -7.91005222	     -1.83428192	     65.28960586	     65.28960586	      3.39077349	    -19.20853451	     13.23480684	     16.20829198	     -2.07042625	     -4.29534570	     30.53275824	     30.53275824	     19.12968914	    -17.27157601	      7.03614019	    -11.69118778	      7.19066132	      2.21858941	     -5.03296797	    -12.10956870	     -8.19853521	     23.54089989	     46.18805862	      0.00000000	      0.00000000	     30.91847376	    -20.63679930	     10.88152707	     48.93372636	     46.29677928	      0.00000000	      0.00000000
     40.99650000	     -2.42079799	     -4.21224360	     -3.95503884	      0.98013021	      0.92328495	      0.38600218	     29.85175754	     -7.34532992	     -1.77867769	     63.45161461	     63.45161461	      3.95736323	    -19.13992818	     13.02633326	     15.25619786	     -2.29405551	     -5.19059591	     29.12174940	     29.12174940	     18.89707502	    -17.00636397	      7.17720211	    -11.69102978	      7.29555973	      2.18956161	     -7.82407598	    -12.11639740	     -8.16891172	     22.98815626	     46.18981804	      0.00000000	      0.00000000	     33.07487182	    -21.71237724	      9.96360995	     50.64749499	     46.42253119	      0.00000000	      0.00000000
     41.01742857	     -2.70450860	     -4.38448474	     -4.88055752	      0.97893873	      0.92543949	      0.38699143	     30.39488725	     -6.64624165	     -1.75089900	     60.78933950	     60.78933950	      3.99270373	    -18.99564992	     10.95151677	     14.47367108	     -2.66227918	     -6.18181332	     27.70715044	     27.70715044	     18.29935048	    -16.73121911	      6.32703106	    -11.63236295	      7.50181731	      2.02940809	    -11.03416599	    -12.20263710	     -8.35522533	     24.78859926	     46.11477653	      0.00000000	      0.00000000	     34.35160489	    -22.90854789	      7.94663374	     54.15033504	     46.66273057	      0.00000000	      0.00000000
     41.03835714	     -3.14409147	     -4.54935982	     -5.77187923	      0.97748123	      0.92729812	      0.38835222	     30.93092799	     -5.83549013	     -1.59415252	     57.59929108	     57.59929108	      4.53803463	    -18.55774392	     10.68782076	     13.95616820	     -3.01269504	     -7.02068557	     26.45605064	     26.45605064	     18.07028482	    -16.46006616	      6.59196241	    -11.29684510	      7.72236049	      1.73750592	    -13.02986448	    -12.20266931	     -8.38423901	     24.31458479	     46.12068911	      0.00000000	      0.00000000	     36.41057472	    -24.23211405	      7.22875503	     55.19156282	     46.75407018	      0.00000000	      0.00000000
     41.05928571	     -3.29603974	     -4.68717044	     -6.73833672	      0.97630609	      0.92939527	      0.39002009	     30.57390075	     -5.21117605	     -1.57910976	     53.18841412	     53.18841412	      2.79258470	    -18.17723525	      3.26959777	     12.94675555	     -3.35703186	     -8.17966420	     24.91387630	     24.91387630	     17.29569632	    -16.05988703	      5.24607146	    -11.51167945	      7.78532544	      1.92523758	    -16.12080265	    -12.30553009	     -8.09048688	     27.18097199	     45.97942275	      0.00000000	      0.00000000	     37.48502735	    -24.91829301	      4.59892263	     59.30875172	     47.05246758	      0.00000000	      0.00000000
